<svg width="38" height="14" viewBox="0 0 38 14" fill="none" xmlns="http://www.w3.org/2000/svg">
<g id="Visa">
<path id="Vector" d="M19.6035 5.06403C19.5835 6.55969 21.0126 7.39438 22.0892 7.89061C23.1954 8.39981 23.5669 8.7263 23.5627 9.18159C23.5543 9.8785 22.6803 10.186 21.8623 10.198C20.4353 10.219 19.6057 9.83357 18.946 9.54202L18.432 11.8175C19.0937 12.106 20.3192 12.3576 21.59 12.3686C24.5728 12.3686 26.5244 10.9758 26.535 8.81616C26.5466 6.07544 22.5273 5.92368 22.5547 4.6986C22.5642 4.32718 22.9389 3.9308 23.7601 3.82996C24.1664 3.77904 25.2884 3.7401 26.5603 4.29423L27.0595 2.09267C26.3756 1.85704 25.4964 1.6314 24.4018 1.6314C21.5942 1.6314 19.6194 3.04319 19.6035 5.06403ZM31.8568 1.8211C31.3121 1.8211 30.853 2.12163 30.6482 2.58291L26.3872 12.2069H29.3679L29.9611 10.6563H33.6036L33.9477 12.2069H36.5748L34.2823 1.8211H31.8568ZM32.2737 4.62671L33.1339 8.52661H30.778L32.2737 4.62671ZM15.9895 1.8211L13.64 12.2069H16.4803L18.8288 1.8211H15.9895ZM11.7876 1.8211L8.83119 8.89004L7.63532 2.87944C7.49494 2.20849 6.94081 1.8211 6.32546 1.8211H1.49236L1.4248 2.12263C2.41697 2.32631 3.54423 2.65479 4.22714 3.00624C4.64511 3.22091 4.76438 3.40862 4.9016 3.91882L7.16668 12.2069H10.1685L14.7704 1.8211H11.7876Z" fill="url(#paint0_linear_1_14394)"/>
</g>
<defs>
<linearGradient id="paint0_linear_1_14394" x1="17.5847" y1="12.584" x2="17.8787" y2="1.55581" gradientUnits="userSpaceOnUse">
<stop stop-color="#222357"/>
<stop offset="1" stop-color="#254AA5"/>
</linearGradient>
</defs>
</svg>
