<svg width="86" height="14" viewBox="0 0 86 14" fill="none" xmlns="http://www.w3.org/2000/svg">
<path d="M8.00887 2.04754L9.03554 4.10087C9.17554 4.38671 9.54887 4.66087 9.86387 4.71337L11.7247 5.02254C12.9147 5.22087 13.1947 6.08421 12.3372 6.93587L10.8905 8.38254C10.6455 8.62754 10.5114 9.10004 10.5872 9.43837L11.0014 11.2292C11.328 12.6467 10.5755 13.195 9.32137 12.4542L7.5772 11.4217C7.2622 11.235 6.74304 11.235 6.4222 11.4217L4.67804 12.4542C3.4297 13.195 2.67137 12.6409 2.99804 11.2292L3.4122 9.43837C3.48804 9.10004 3.35387 8.62754 3.10887 8.38254L1.6622 6.93587C0.810536 6.08421 1.0847 5.22087 2.2747 5.02254L4.13554 4.71337C4.4447 4.66087 4.81804 4.38671 4.95804 4.10087L5.9847 2.04754C6.5447 0.933372 7.4547 0.933372 8.00887 2.04754Z" fill="#F2BC1B" stroke="#F2BC1B" stroke-width="1.5" stroke-linecap="round" stroke-linejoin="round"/>
<path d="M26.0089 2.04754L27.0355 4.10087C27.1755 4.38671 27.5489 4.66087 27.8639 4.71337L29.7247 5.02254C30.9147 5.22087 31.1947 6.08421 30.3372 6.93587L28.8905 8.38254C28.6455 8.62754 28.5114 9.10004 28.5872 9.43837L29.0014 11.2292C29.328 12.6467 28.5755 13.195 27.3214 12.4542L25.5772 11.4217C25.2622 11.235 24.743 11.235 24.4222 11.4217L22.678 12.4542C21.4297 13.195 20.6714 12.6409 20.998 11.2292L21.4122 9.43837C21.488 9.10004 21.3539 8.62754 21.1089 8.38254L19.6622 6.93587C18.8105 6.08421 19.0847 5.22087 20.2747 5.02254L22.1355 4.71337C22.4447 4.66087 22.818 4.38671 22.958 4.10087L23.9847 2.04754C24.5447 0.933372 25.4547 0.933372 26.0089 2.04754Z" fill="#F2BC1B" stroke="#F2BC1B" stroke-width="1.5" stroke-linecap="round" stroke-linejoin="round"/>
<path d="M44.0089 2.04754L45.0355 4.10087C45.1755 4.38671 45.5489 4.66087 45.8639 4.71337L47.7247 5.02254C48.9147 5.22087 49.1947 6.08421 48.3372 6.93587L46.8905 8.38254C46.6455 8.62754 46.5114 9.10004 46.5872 9.43837L47.0014 11.2292C47.328 12.6467 46.5755 13.195 45.3214 12.4542L43.5772 11.4217C43.2622 11.235 42.743 11.235 42.4222 11.4217L40.678 12.4542C39.4297 13.195 38.6714 12.6409 38.998 11.2292L39.4122 9.43837C39.488 9.10004 39.3539 8.62754 39.1089 8.38254L37.6622 6.93587C36.8105 6.08421 37.0847 5.22087 38.2747 5.02254L40.1355 4.71337C40.4447 4.66087 40.818 4.38671 40.958 4.10087L41.9847 2.04754C42.5447 0.933372 43.4547 0.933372 44.0089 2.04754Z" fill="#F2BC1B" stroke="#F2BC1B" stroke-width="1.5" stroke-linecap="round" stroke-linejoin="round"/>
<path d="M62.0089 2.04754L63.0355 4.10087C63.1755 4.38671 63.5489 4.66087 63.8639 4.71337L65.7247 5.02254C66.9147 5.22087 67.1947 6.08421 66.3372 6.93587L64.8905 8.38254C64.6455 8.62754 64.5114 9.10004 64.5872 9.43837L65.0014 11.2292C65.328 12.6467 64.5755 13.195 63.3214 12.4542L61.5772 11.4217C61.2622 11.235 60.743 11.235 60.4222 11.4217L58.678 12.4542C57.4297 13.195 56.6714 12.6409 56.998 11.2292L57.4122 9.43837C57.488 9.10004 57.3539 8.62754 57.1089 8.38254L55.6622 6.93587C54.8105 6.08421 55.0847 5.22087 56.2747 5.02254L58.1355 4.71337C58.4447 4.66087 58.818 4.38671 58.958 4.10087L59.9847 2.04754C60.5447 0.933372 61.4547 0.933372 62.0089 2.04754Z" fill="white" stroke="#C8C9CB" stroke-linecap="round" stroke-linejoin="round"/>
<path d="M80.0089 2.04754L81.0355 4.10087C81.1755 4.38671 81.5489 4.66087 81.8639 4.71337L83.7247 5.02254C84.9147 5.22087 85.1947 6.08421 84.3372 6.93587L82.8905 8.38254C82.6455 8.62754 82.5114 9.10004 82.5872 9.43837L83.0014 11.2292C83.328 12.6467 82.5755 13.195 81.3214 12.4542L79.5772 11.4217C79.2622 11.235 78.743 11.235 78.4222 11.4217L76.678 12.4542C75.4297 13.195 74.6714 12.6409 74.998 11.2292L75.4122 9.43837C75.488 9.10004 75.3539 8.62754 75.1089 8.38254L73.6622 6.93587C72.8105 6.08421 73.0847 5.22087 74.2747 5.02254L76.1355 4.71337C76.4447 4.66087 76.818 4.38671 76.958 4.10087L77.9847 2.04754C78.5447 0.933372 79.4547 0.933372 80.0089 2.04754Z" fill="white" stroke="#C8C9CB" stroke-linecap="round" stroke-linejoin="round"/>
</svg>
