<svg width="26" height="22" viewBox="0 0 26 22" fill="none" xmlns="http://www.w3.org/2000/svg">
<g id="Capa 2">
<g id="ELEMENTS">
<path id="Vector" d="M24.9126 3.34613C24.1201 3.68722 23.2869 3.92473 22.4336 4.0528C22.8325 3.98442 23.4195 3.26635 23.6532 2.9757C24.0082 2.53729 24.2787 2.03681 24.451 1.49968C24.451 1.45978 24.4909 1.40279 24.451 1.3743C24.4309 1.36333 24.4084 1.35758 24.3855 1.35758C24.3626 1.35758 24.3401 1.36333 24.32 1.3743C23.3934 1.87605 22.4073 2.259 21.385 2.51409C21.3494 2.52497 21.3114 2.52595 21.2753 2.51691C21.2392 2.50788 21.2062 2.48917 21.1798 2.4628C21.1003 2.36804 21.0146 2.27857 20.9234 2.19495C20.5064 1.82135 20.0333 1.51558 19.5214 1.28882C18.8305 1.00534 18.0841 0.882569 17.3388 0.929782C16.6155 0.975458 15.9094 1.16944 15.2643 1.49968C14.6291 1.84784 14.0708 2.32083 13.623 2.89022C13.152 3.47627 12.812 4.1564 12.6257 4.88485C12.4722 5.57776 12.4547 6.2939 12.5744 6.99346C12.5744 7.11314 12.5744 7.13023 12.4719 7.11314C8.40851 6.51475 5.07463 5.07291 2.35054 1.97839C2.23086 1.84161 2.16817 1.84161 2.07129 1.97839C0.885909 3.77925 1.4615 6.62873 2.94323 8.03636C3.14269 8.22443 3.34785 8.4068 3.56441 8.57776C2.88505 8.52953 2.22228 8.34543 1.61537 8.03636C1.50139 7.96228 1.43871 8.00217 1.43301 8.13894C1.41685 8.32857 1.41685 8.51922 1.43301 8.70884C1.55192 9.61759 1.91005 10.4785 2.47079 11.2034C3.03152 11.9283 3.77473 12.4914 4.62441 12.8349C4.83155 12.9236 5.04738 12.9904 5.2684 13.0343C4.63947 13.1582 3.99444 13.1774 3.35925 13.0913C3.22248 13.0628 3.17118 13.1369 3.22248 13.268C4.06022 15.5476 5.87818 16.2428 7.21173 16.6304C7.3941 16.6589 7.57647 16.6589 7.78163 16.7045C7.78163 16.7045 7.78163 16.7045 7.74744 16.7387C7.35421 17.4567 5.7642 17.9411 5.03474 18.1919C3.70328 18.6701 2.2837 18.8529 0.874511 18.7276C0.652252 18.6934 0.600962 18.6991 0.543973 18.7276C0.486983 18.7561 0.543973 18.8188 0.606661 18.8758C0.891608 19.0638 1.17656 19.2291 1.4729 19.3887C2.35512 19.8699 3.28781 20.2521 4.25398 20.5284C9.25765 21.9076 14.8882 20.8932 18.6438 17.1604C21.5959 14.2311 22.6331 10.1906 22.6331 6.14431C22.6331 5.99044 22.8211 5.89926 22.9294 5.81948C23.6763 5.23755 24.3347 4.55032 24.8842 3.77925C24.9793 3.66432 25.0281 3.51797 25.0209 3.36893C25.0209 3.28345 25.0209 3.30054 24.9126 3.34613Z" fill="#33CCFF"/>
</g>
</g>
</svg>
