<svg width="20" height="20" viewBox="0 0 20 20" fill="none" xmlns="http://www.w3.org/2000/svg">
<g id="Group">
<path id="Vector" d="M19.7009 12.4183C18.3647 17.7783 12.9343 21.0365 7.5819 19.7004C2.22174 18.3643 -1.03655 12.934 0.299583 7.58173C1.63572 2.22169 7.05839 -1.03653 12.4186 0.299576C17.7709 1.62787 21.037 7.05823 19.7009 12.4183Z" fill="url(#paint0_linear_1_14396)"/>
<path id="Vector_2" d="M14.7607 8.75401C14.9561 7.42589 13.9482 6.70714 12.5576 6.23058L13.0107 4.42589L11.917 4.15245L11.4795 5.91026C11.1904 5.83995 10.8936 5.76964 10.5967 5.70714L11.0342 3.94151L9.94043 3.66808L9.49512 5.46495C9.25293 5.41026 9.01855 5.35558 8.79199 5.30089V5.29308L7.27637 4.91808L6.9873 6.08995C6.9873 6.08995 7.7998 6.27745 7.78418 6.28526C8.22949 6.39464 8.30762 6.69151 8.29199 6.92589L7.77637 8.98058C7.80762 8.98839 7.84668 8.9962 7.89355 9.01964C7.85449 9.01183 7.81543 9.00401 7.77637 8.98839L7.05762 11.8634C7.00293 11.9962 6.8623 12.1993 6.55762 12.1212C6.56543 12.1368 5.76074 11.9259 5.76074 11.9259L5.21387 13.1837L6.64355 13.5431C6.90918 13.6134 7.16699 13.6759 7.4248 13.7462L6.97168 15.5665L8.06543 15.84L8.51855 14.0353C8.81543 14.1134 9.1123 14.1915 9.39355 14.2618L8.94824 16.0587L10.042 16.3321L10.4951 14.5118C12.3701 14.8634 13.7764 14.7228 14.3623 13.0275C14.8389 11.6681 14.3389 10.879 13.3545 10.3634C14.0811 10.1993 14.6201 9.72276 14.7607 8.75401ZM12.2529 12.2696C11.917 13.629 9.62012 12.8946 8.87793 12.7071L9.47949 10.2931C10.2217 10.4806 12.6123 10.8478 12.2529 12.2696ZM12.5967 8.73058C12.2842 9.97276 10.3779 9.33995 9.76074 9.1837L10.3076 6.9962C10.9248 7.15245 12.917 7.44151 12.5967 8.73058Z" fill="white"/>
</g>
<defs>
<linearGradient id="paint0_linear_1_14396" x1="9.99466" y1="-0.0047105" x2="9.99466" y2="19.998" gradientUnits="userSpaceOnUse">
<stop stop-color="#F9AA4B"/>
<stop offset="1" stop-color="#F7931A"/>
</linearGradient>
</defs>
</svg>
