<svg width="20" height="20" viewBox="0 0 20 20" fill="none" xmlns="http://www.w3.org/2000/svg">
<g id="Clip path group">
<mask id="mask0_1_14400" style="mask-type:luminance" maskUnits="userSpaceOnUse" x="0" y="0" width="20" height="20">
<g id="a">
<path id="Vector" d="M0 0H19.9997V20H0V0Z" fill="white"/>
</g>
</mask>
<g mask="url(#mask0_1_14400)">
<g id="Group">
<path id="Vector_2" d="M1.9507 0.340851H18.0491C18.2606 0.340836 18.4699 0.382465 18.6653 0.46336C18.8606 0.544256 19.0381 0.662835 19.1876 0.812326C19.3371 0.961817 19.4557 1.13929 19.5367 1.33462C19.6176 1.52995 19.6592 1.7393 19.6592 1.95073V18.0495C19.6592 18.2609 19.6176 18.4703 19.5367 18.6656C19.4557 18.8609 19.3371 19.0384 19.1876 19.1878C19.0381 19.3373 18.8607 19.4559 18.6653 19.5368C18.47 19.6177 18.2607 19.6593 18.0493 19.6593H1.95047C1.52358 19.6593 1.11418 19.4897 0.812316 19.1879C0.510452 18.886 0.340851 18.4766 0.34082 18.0497V1.95061C0.340851 1.52367 0.510476 1.11422 0.812383 0.812333C1.11429 0.510447 1.52375 0.340851 1.9507 0.340851Z" fill="#FDB913"/>
<path id="Vector_3" d="M18.0493 0.340728C18.4762 0.34085 18.8856 0.510523 19.1875 0.812439C19.4893 1.11436 19.6589 1.52379 19.6589 1.95072V18.0494C19.6589 18.4763 19.4893 18.8857 19.1875 19.1876C18.8856 19.4895 18.4762 19.6592 18.0493 19.6593H1.95061C1.73918 19.6593 1.52982 19.6177 1.33448 19.5368C1.13914 19.4559 0.96165 19.3373 0.812149 19.1878C0.662649 19.0383 0.544068 18.8609 0.46318 18.6655C0.382292 18.4702 0.340683 18.2608 0.340728 18.0494V1.95072C0.340683 1.73929 0.382292 1.52992 0.463178 1.33458C0.544065 1.13923 0.662644 0.961733 0.812142 0.812224C0.961641 0.662714 1.13913 0.544123 1.33447 0.463222C1.52981 0.382322 1.73918 0.340698 1.95061 0.340728H18.0493ZM18.0493 0H1.95061C1.43342 0.000546867 0.937577 0.206248 0.571883 0.571964C0.206188 0.93768 0.00051644 1.43354 0 1.95072L0 18.0494C0.000577133 18.5665 0.206272 19.0624 0.571957 19.428C0.937641 19.7937 1.43345 19.9994 1.95061 20H18.0493C18.5664 19.9994 19.0622 19.7937 19.4278 19.428C19.7935 19.0623 19.9991 18.5665 19.9997 18.0494V1.95072C19.9992 1.43357 19.7935 0.937727 19.4279 0.572011C19.0622 0.206295 18.5664 0.000577293 18.0493 0Z" fill="white"/>
<path id="Vector_4" d="M11.1271 10.2085L11.1255 6.74972L12.0283 6.53546V6.98899C12.0283 6.98899 12.2622 6.39269 12.8049 6.25429C12.886 6.22818 12.9722 6.22238 13.056 6.23742V7.11994C12.8935 7.12206 12.7329 7.15549 12.583 7.2184C12.2494 7.35015 12.0815 7.63763 12.0815 8.07648L12.082 9.98634L11.1271 10.2085ZM6.36783 11.3333C6.36783 11.3333 6.22093 11.1132 6.22093 10.3349V8.61287L5.75649 8.72339V8.01382L6.22208 7.90388V7.13038L7.18206 6.90373V7.67711L7.8603 7.51598V8.22463L7.18206 8.38565C7.18206 8.38565 7.18091 9.79664 7.18206 10.1392C7.18206 10.9367 7.39368 11.0898 7.39368 11.0898L6.36783 11.3333ZM7.96072 9.27562C7.96072 8.66073 8.04828 8.21213 8.23626 7.86784C8.46005 7.45929 8.82671 7.19304 9.36104 7.07139C10.4142 6.83189 10.7944 7.45527 10.7796 8.2912C10.774 8.59015 10.7754 8.73578 10.7754 8.73578L8.9199 9.17188V9.20172C8.9199 9.78585 9.04235 10.063 9.41246 9.98439C9.73218 9.91703 9.82112 9.71677 9.84637 9.46911C9.8505 9.42917 9.85245 9.32761 9.85245 9.32761L10.7217 9.11932C10.7217 9.11932 10.7237 9.19047 10.7225 9.27034C10.7149 9.60224 10.6184 10.4255 9.41028 10.7112C8.26587 10.9828 7.96083 10.2839 7.96083 9.27551M9.3996 7.71567C9.09216 7.78544 8.93092 8.08704 8.92392 8.58671L9.85728 8.36441C9.85888 8.34181 9.85911 8.292 9.85888 8.21396C9.85728 7.83674 9.74068 7.63763 9.3996 7.71567ZM16.3054 7.25295C16.2694 6.19955 16.5426 5.36351 17.7179 5.09726C18.4669 4.92707 18.7514 5.12193 18.8955 5.31026C19.034 5.48998 19.0875 5.73235 19.0875 6.07182L19.0883 6.13413L18.1688 6.35264L18.1681 6.22468C18.1688 5.8221 18.0569 5.669 17.7645 5.74222C17.4167 5.82956 17.2763 6.15961 17.2763 6.81582C17.2763 7.04878 17.2774 7.09056 17.2774 7.122C17.2774 7.78888 17.3684 8.09415 17.7692 8.01026C18.1169 7.93842 18.1644 7.63315 18.17 7.36553C18.1707 7.32352 18.1725 7.18902 18.1725 7.18902L19.0906 6.97212C19.0906 6.97212 19.0915 7.03995 19.0915 7.11535C19.0892 7.98983 18.6283 8.54092 17.7648 8.74187C16.5752 9.02074 16.3422 8.33331 16.3053 7.25295M13.1268 8.72775C13.1268 7.92648 13.5962 7.67309 14.3027 7.38079C14.938 7.11799 14.9518 6.9875 14.9544 6.75913C14.9579 6.5669 14.8688 6.40245 14.5525 6.48312C14.4471 6.50438 14.3519 6.56063 14.2824 6.64277C14.2129 6.7249 14.1732 6.8281 14.1697 6.93563C14.1645 6.99466 14.1625 7.05392 14.1637 7.11317L13.2729 7.32352C13.2669 7.146 13.2877 6.96859 13.3344 6.79723C13.4767 6.3181 13.8994 5.99573 14.6288 5.82692C15.5765 5.60852 15.8924 6.02442 15.8935 6.67133V8.20329C15.8935 8.94419 16.0311 9.05276 16.0311 9.05276L15.1566 9.25967C15.1084 9.15863 15.0692 9.05352 15.0395 8.94557C15.0395 8.94557 14.8478 9.42803 14.1876 9.58318C13.4941 9.74672 13.1268 9.31694 13.1268 8.72775ZM14.9483 7.63361C14.8009 7.73696 14.6453 7.82808 14.4831 7.90606C14.1916 8.04848 14.0599 8.22418 14.0599 8.49478C14.0599 8.72913 14.205 8.88302 14.4689 8.81784C14.7519 8.74646 14.9483 8.48239 14.9483 8.1155V7.63361ZM1.34838 13.7579C1.24857 13.7578 1.15064 13.7307 1.06489 13.6796C0.979153 13.6285 0.908774 13.5553 0.861165 13.4676C0.813557 13.3798 0.79048 13.2809 0.794366 13.1812C0.798252 13.0814 0.828956 12.9846 0.883246 12.9008L0.889443 12.8928L0.899771 12.89L2.20565 12.5818V13.5735L2.18533 13.5782C1.94476 13.6361 1.70371 13.6921 1.46222 13.7461C1.42479 13.754 1.38663 13.7579 1.34838 13.7579ZM1.34838 15.0265C1.20145 15.0265 1.06051 14.9682 0.956555 14.8643C0.852595 14.7605 0.794113 14.6197 0.793961 14.4727C0.793661 14.3657 0.824698 14.2609 0.883246 14.1712L0.889443 14.1621L0.899771 14.1593L2.20565 13.8512V14.8428L2.18533 14.8481C1.88913 14.9193 1.53509 15.0012 1.46222 15.0158C1.42471 15.023 1.38658 15.0266 1.34838 15.0265ZM1.34838 16.2976C1.20138 16.2975 1.06044 16.239 0.956486 16.1351C0.852536 16.0312 0.794082 15.8902 0.793961 15.7433C0.793569 15.6362 0.824615 15.5314 0.883246 15.4419L0.889443 15.4319L2.20565 15.1217V16.1132L2.18533 16.1186C1.87249 16.1939 1.52511 16.2724 1.46222 16.2862C1.42474 16.2937 1.38661 16.2975 1.34838 16.2976ZM2.20553 6.75511V12.3036L1.19425 12.5428L1.19391 6.99416L2.20553 6.75511ZM3.71396 12.0706C3.71508 11.988 3.69977 11.9059 3.6689 11.8292C3.63804 11.7525 3.59225 11.6827 3.53418 11.6238C3.47611 11.565 3.40693 11.5182 3.33065 11.4863C3.25437 11.4544 3.17251 11.438 3.08983 11.438C3.00715 11.438 2.92529 11.4544 2.84901 11.4863C2.77273 11.5182 2.70354 11.565 2.64548 11.6238C2.58741 11.6827 2.54162 11.7525 2.51075 11.8292C2.47989 11.9059 2.46458 11.988 2.4657 12.0706L2.46684 17.2567C2.46739 17.7046 2.64544 18.1339 2.96198 18.4507C3.27853 18.7675 3.70774 18.9458 4.15556 18.9467C4.62804 18.9467 5.92232 18.9444 5.92232 18.9444L5.9229 16.7809L5.92347 14.3683C5.92362 14.2338 5.89056 14.1013 5.82724 13.9827C5.76392 13.864 5.67229 13.7628 5.56048 13.6881L3.98595 12.6185L3.98549 15.0472C3.98549 15.0649 3.98201 15.0823 3.97527 15.0986C3.96852 15.1149 3.95863 15.1297 3.94616 15.1422C3.93369 15.1546 3.91889 15.1645 3.9026 15.1713C3.88631 15.178 3.86885 15.1815 3.85122 15.1815C3.83358 15.1815 3.81612 15.178 3.79983 15.1713C3.78354 15.1645 3.76874 15.1546 3.75627 15.1422C3.7438 15.1297 3.73391 15.1149 3.72717 15.0986C3.72042 15.0823 3.71694 15.0649 3.71694 15.0472C3.71694 15.0212 3.71396 12.3914 3.71396 12.0706ZM4.55689 8.20145C4.36554 8.24585 4.18604 8.33104 4.03064 8.45118C3.87524 8.57133 3.74761 8.7236 3.65646 8.8976V8.50764L2.7456 8.72316L2.74675 11.2135C2.90651 11.1503 3.08063 11.1326 3.24986 11.1621C3.41909 11.1917 3.57684 11.2675 3.7057 11.3812V9.77335C3.7057 9.38809 3.89735 9.08041 4.17117 9.02005C4.37717 8.97483 4.5492 9.04851 4.5492 9.4154L4.54989 11.7614L5.50929 11.5364V9.05471C5.50929 8.45301 5.27759 8.03241 4.55689 8.20145ZM18.4965 4.65015C18.3792 4.65026 18.2645 4.61556 18.1668 4.55044C18.0692 4.48532 17.9931 4.39271 17.9481 4.28432C17.9032 4.17593 17.8914 4.05664 17.9142 3.94154C17.9371 3.82644 17.9936 3.72071 18.0766 3.63772C18.1595 3.55474 18.2652 3.49823 18.3803 3.47535C18.4954 3.45247 18.6147 3.46425 18.7231 3.50919C18.8315 3.55414 18.9241 3.63023 18.9893 3.72783C19.0544 3.82544 19.0891 3.94017 19.0891 4.05752C19.0889 4.21464 19.0264 4.36528 18.9154 4.4764C18.8043 4.58753 18.6537 4.64994 18.4965 4.65015ZM18.4965 3.53879C18.394 3.53877 18.2937 3.56917 18.2084 3.62613C18.1231 3.6831 18.0566 3.76408 18.0173 3.85883C17.9781 3.95359 17.9678 4.05786 17.9878 4.15847C18.0078 4.25907 18.0571 4.35149 18.1296 4.42403C18.2021 4.49658 18.2945 4.54599 18.3951 4.56602C18.4957 4.58606 18.6 4.57581 18.6948 4.53658C18.7896 4.49735 18.8706 4.43089 18.9276 4.34562C18.9846 4.26035 19.015 4.16009 19.015 4.05752C19.0149 3.92002 18.9603 3.78819 18.8631 3.69094C18.7659 3.59369 18.634 3.53898 18.4965 3.53879Z" fill="#231F20"/>
<path id="Vector_5" d="M18.2803 3.70417H18.5358C18.5608 3.70149 18.5861 3.70448 18.6097 3.71291C18.6334 3.72134 18.6549 3.73499 18.6725 3.75286C18.6902 3.77072 18.7036 3.79234 18.7117 3.81609C18.7199 3.83985 18.7226 3.86514 18.7196 3.89008C18.7196 3.98407 18.6779 4.05626 18.5991 4.06854V4.06991C18.6708 4.07726 18.7086 4.11685 18.7122 4.21865C18.7136 4.26455 18.7143 4.32147 18.7165 4.36577C18.7165 4.37824 18.7197 4.3905 18.7257 4.40143C18.7317 4.41236 18.7404 4.4216 18.7509 4.42832H18.6202C18.6077 4.40918 18.601 4.38689 18.6007 4.36405C18.5967 4.32078 18.5977 4.27993 18.5958 4.22737C18.5938 4.14841 18.5696 4.11375 18.4903 4.11375H18.3957V4.4282H18.2803V3.70417ZM18.4882 4.02665C18.5039 4.02808 18.5197 4.02601 18.5345 4.02059C18.5493 4.01517 18.5627 4.00653 18.5738 3.9953C18.5848 3.98407 18.5933 3.97053 18.5985 3.95565C18.6036 3.94076 18.6055 3.92492 18.6038 3.90925C18.6038 3.83201 18.5705 3.79139 18.4943 3.79139H18.3957V4.02665H18.4882Z" fill="#231F20"/>
</g>
</g>
</g>
</svg>
